<svg width="20" height="20" viewBox="0 0 20 20" fill="none" xmlns="http://www.w3.org/2000/svg">
<path d="M2.77498 7.42504C2.77498 7.26671 2.83332 7.10837 2.95832 6.98337C3.19998 6.74171 3.59998 6.74171 3.84165 6.98337L9.27498 12.4167C9.67498 12.8167 10.325 12.8167 10.725 12.4167L16.1583 6.98337C16.4 6.74171 16.8 6.74171 17.0417 6.98337C17.2833 7.22504 17.2833 7.62504 17.0417 7.86671L11.6083 13.3C11.1833 13.725 10.6083 13.9667 9.99998 13.9667C9.39165 13.9667 8.81665 13.7334 8.39165 13.3L2.95832 7.86671C2.84165 7.74171 2.77498 7.58337 2.77498 7.42504Z" fill="white"/>
</svg>
