<svg width="30" height="30" viewBox="0 0 30 30" fill="none" xmlns="http://www.w3.org/2000/svg">
<path d="M18.0375 23.525C17.8 23.525 17.5625 23.4375 17.375 23.25C17.0125 22.8875 17.0125 22.2875 17.375 21.925L24.3 15L17.375 8.07499C17.0125 7.71249 17.0125 7.11249 17.375 6.74999C17.7375 6.38749 18.3375 6.38749 18.7 6.74999L26.2875 14.3375C26.65 14.7 26.65 15.3 26.2875 15.6625L18.7 23.25C18.5125 23.4375 18.275 23.525 18.0375 23.525Z" fill="white"/>
<path d="M25.4125 15.9375H4.375C3.8625 15.9375 3.4375 15.5125 3.4375 15C3.4375 14.4875 3.8625 14.0625 4.375 14.0625H25.4125C25.925 14.0625 26.35 14.4875 26.35 15C26.35 15.5125 25.925 15.9375 25.4125 15.9375Z" fill="white"/>
</svg>
