<svg width="20" height="20" viewBox="0 0 20 20" fill="none" xmlns="http://www.w3.org/2000/svg">
<path d="M16.6333 7.46669C16.075 6.85002 15.2333 6.49169 14.0667 6.36669V5.73335C14.0667 4.59169 13.5833 3.49169 12.7333 2.72502C11.875 1.94169 10.7583 1.57502 9.60001 1.68335C7.60835 1.87502 5.93335 3.80002 5.93335 5.88335V6.36669C4.76668 6.49169 3.92501 6.85002 3.36668 7.46669C2.55835 8.36669 2.58335 9.56669 2.67501 10.4L3.25835 15.0417C3.43335 16.6667 4.09168 18.3334 7.67501 18.3334H12.325C15.9083 18.3334 16.5667 16.6667 16.7417 15.05L17.325 10.3917C17.4167 9.56669 17.4333 8.36669 16.6333 7.46669ZM9.71668 2.84169C10.55 2.76669 11.3417 3.02502 11.9583 3.58335C12.5667 4.13335 12.9083 4.91669 12.9083 5.73335V6.31669H7.09168V5.88335C7.09168 4.40002 8.31668 2.97502 9.71668 2.84169ZM7.01668 10.9584H7.00835C6.55001 10.9584 6.17501 10.5834 6.17501 10.125C6.17501 9.66669 6.55001 9.29169 7.00835 9.29169C7.47501 9.29169 7.85001 9.66669 7.85001 10.125C7.85001 10.5834 7.47501 10.9584 7.01668 10.9584ZM12.85 10.9584H12.8417C12.3833 10.9584 12.0083 10.5834 12.0083 10.125C12.0083 9.66669 12.3833 9.29169 12.8417 9.29169C13.3083 9.29169 13.6833 9.66669 13.6833 10.125C13.6833 10.5834 13.3083 10.9584 12.85 10.9584Z" fill="white"/>
</svg>
