<svg width="20" height="20" viewBox="0 0 20 20" fill="none" xmlns="http://www.w3.org/2000/svg">
<path d="M16.6333 7.46669C16.075 6.85002 15.2333 6.49169 14.0666 6.36669V5.73335C14.0666 4.59169 13.5833 3.49169 12.7333 2.72502C11.875 1.94169 10.7583 1.57502 9.59995 1.68335C7.60828 1.87502 5.93328 3.80002 5.93328 5.88335V6.36669C4.76662 6.49169 3.92495 6.85002 3.36662 7.46669C2.55828 8.36669 2.58328 9.56669 2.67495 10.4L3.25828 15.0417C3.43328 16.6667 4.09162 18.3334 7.67495 18.3334H12.325C15.9083 18.3334 16.5666 16.6667 16.7416 15.05L17.325 10.3917C17.4166 9.56669 17.4333 8.36669 16.6333 7.46669ZM9.71662 2.84169C10.55 2.76669 11.3416 3.02502 11.9583 3.58335C12.5666 4.13335 12.9083 4.91669 12.9083 5.73335V6.31669H7.09162V5.88335C7.09162 4.40002 8.31662 2.97502 9.71662 2.84169ZM7.01662 10.9584H7.00828C6.54995 10.9584 6.17495 10.5834 6.17495 10.125C6.17495 9.66669 6.54995 9.29169 7.00828 9.29169C7.47495 9.29169 7.84995 9.66669 7.84995 10.125C7.84995 10.5834 7.47495 10.9584 7.01662 10.9584ZM12.85 10.9584H12.8416C12.3833 10.9584 12.0083 10.5834 12.0083 10.125C12.0083 9.66669 12.3833 9.29169 12.8416 9.29169C13.3083 9.29169 13.6833 9.66669 13.6833 10.125C13.6833 10.5834 13.3083 10.9584 12.85 10.9584Z" fill="#3B3B3B"/>
</svg>
