<svg width="24" height="24" viewBox="0 0 24 24" fill="none" xmlns="http://www.w3.org/2000/svg">
<path d="M14.1809 4.2755C14.581 4.3827 14.8185 4.79396 14.7113 5.19406L10.7377 20.0238C10.6304 20.4239 10.2192 20.6613 9.81913 20.5541C9.41903 20.4469 9.1816 20.0356 9.2888 19.6355L13.2624 4.80583C13.3696 4.40573 13.7808 4.16829 14.1809 4.2755Z" fill="white"/>
<path d="M16.4425 7.32775C16.7196 7.01987 17.1938 6.99491 17.5017 7.272L19.2392 8.83574C19.9756 9.49841 20.5864 10.0481 21.0058 10.5466C21.4468 11.0709 21.7603 11.6341 21.7603 12.3294C21.7603 13.0247 21.4468 13.588 21.0058 14.1122C20.5864 14.6108 19.9756 15.1605 19.2392 15.8232L17.5017 17.3869C17.1938 17.664 16.7196 17.639 16.4425 17.3312C16.1654 17.0233 16.1904 16.5491 16.4983 16.272L18.1947 14.7451C18.9826 14.0361 19.5138 13.5557 19.8579 13.1466C20.1882 12.754 20.2603 12.5249 20.2603 12.3294C20.2603 12.134 20.1882 11.9048 19.8579 11.5122C19.5138 11.1032 18.9826 10.6228 18.1947 9.91377L16.4983 8.38694C16.1904 8.10985 16.1654 7.63563 16.4425 7.32775Z" fill="white"/>
<path d="M7.50178 8.38694C7.80966 8.10985 7.83462 7.63563 7.55752 7.32775C7.28043 7.01987 6.80621 6.99491 6.49833 7.272L4.76084 8.83574C4.0245 9.49841 3.41369 10.0481 2.99428 10.5466C2.55325 11.0709 2.23975 11.6341 2.23975 12.3294C2.23975 13.0247 2.55325 13.588 2.99428 14.1122C3.41369 14.6108 4.02449 15.1605 4.76082 15.8231L6.49833 17.3869C6.80621 17.664 7.28043 17.639 7.55752 17.3312C7.83462 17.0233 7.80966 16.5491 7.50178 16.272L5.80531 14.7451C5.01743 14.0361 4.48623 13.5557 4.14213 13.1466C3.81188 12.754 3.73975 12.5249 3.73975 12.3294C3.73975 12.134 3.81188 11.9048 4.14213 11.5122C4.48623 11.1032 5.01743 10.6228 5.80531 9.91377L7.50178 8.38694Z" fill="white"/>
</svg>
