<svg width="24" height="24" viewBox="0 0 24 24" fill="none" xmlns="http://www.w3.org/2000/svg">
<path d="M22.0546 11.0133C21.0257 6.3867 19.5726 5.24529 18.689 4.78826C17.2734 4.05467 15.6304 4.48123 15.0867 4.75779C14.4679 5.06951 14.0507 5.66483 13.4226 5.92264C12.6961 6.22029 11.707 6.29998 10.964 5.94139C10.3711 5.65545 9.8484 5.04373 9.13121 4.77186C8.22184 4.42733 6.70543 3.94686 5.20778 4.9992C4.85153 5.24998 2.32262 7.32654 1.56559 13.8187C1.09684 17.8219 3.33512 19.1086 3.25309 19.05C3.82965 19.4555 5.11871 20.1375 6.86715 19.0664C8.03434 18.3515 8.98356 16.9359 8.98356 16.9359C8.98356 16.9359 9.40543 16.1484 9.96793 15.8156C10.364 15.5789 10.9593 15.7594 10.9593 15.7594H13.0617C13.0617 15.7594 13.7297 15.6773 14.1961 15.8789C14.6507 16.0734 14.9086 16.5539 14.9086 16.5539C14.9086 16.5539 16.2937 18.3094 17.6203 19.2023C18.1851 19.582 20.4562 20.0203 21.6304 18.6164C22.3922 17.7 22.9148 14.8758 22.0546 11.0133ZM10.8281 10.6031C10.8281 10.9547 10.5422 11.2383 10.1906 11.2383H8.59918V12.832C8.59918 13.1836 8.31324 13.4695 7.96168 13.4695H7.48356C7.13199 13.4695 6.84606 13.1859 6.84606 12.832V11.2383H5.25465C4.90309 11.2383 4.61715 10.9547 4.61715 10.6031V10.125C4.61715 9.77342 4.90309 9.48748 5.25465 9.48748H6.84606V7.89608C6.84606 7.54451 7.13199 7.25858 7.48356 7.25858H7.96168C8.31324 7.25858 8.59918 7.54451 8.59918 7.89608V9.48748H10.1906C10.5422 9.48748 10.8281 9.77108 10.8281 10.125V10.6031ZM15.314 12.832C14.6554 12.832 14.1211 12.2976 14.1211 11.6367C14.1211 10.9781 14.6554 10.4437 15.314 10.4437C15.9726 10.4437 16.507 10.9781 16.507 11.6367C16.507 12.2976 15.9726 12.832 15.314 12.832ZM17.5031 10.1789C16.8515 10.1789 16.3218 9.6492 16.3218 8.99764C16.3218 8.34608 16.8515 7.81873 17.5031 7.81873C18.1546 7.81873 18.6843 8.34842 18.6843 8.99764C18.682 9.6492 18.1546 10.1789 17.5031 10.1789Z" fill="white"/>
</svg>
