<svg width="20" height="20" viewBox="0 0 20 20" fill="none" xmlns="http://www.w3.org/2000/svg">
<path d="M17.7083 15.3917L16.3333 15.7167C16.025 15.7917 15.7833 16.025 15.7167 16.3333L15.425 17.5583C15.2667 18.225 14.4167 18.4333 13.975 17.9083L11.4833 15.0417C11.2833 14.8083 11.3917 14.4417 11.6917 14.3667C13.1667 14.0083 14.4917 13.1833 15.4667 12.0083C15.625 11.8167 15.9083 11.7917 16.0833 11.9667L17.9333 13.8167C18.5667 14.45 18.3417 15.2417 17.7083 15.3917Z" fill="white"/>
<path d="M2.25001 15.3917L3.62501 15.7167C3.93335 15.7917 4.17501 16.025 4.24168 16.3333L4.53335 17.5583C4.69168 18.225 5.54168 18.4333 5.98335 17.9083L8.47501 15.0417C8.67501 14.8083 8.56668 14.4417 8.26668 14.3667C6.79168 14.0083 5.46668 13.1833 4.49168 12.0083C4.33335 11.8167 4.05001 11.7917 3.87501 11.9667L2.02501 13.8167C1.39168 14.45 1.61668 15.2417 2.25001 15.3917Z" fill="white"/>
<path d="M10 1.66669C6.77502 1.66669 4.16669 4.27502 4.16669 7.50002C4.16669 8.70835 4.52502 9.81669 5.14169 10.7417C6.04169 12.075 7.46669 13.0167 9.12502 13.2584C9.40835 13.3084 9.70002 13.3334 10 13.3334C10.3 13.3334 10.5917 13.3084 10.875 13.2584C12.5334 13.0167 13.9584 12.075 14.8584 10.7417C15.475 9.81669 15.8334 8.70835 15.8334 7.50002C15.8334 4.27502 13.225 1.66669 10 1.66669ZM12.55 7.31669L11.8584 8.00835C11.7417 8.12502 11.675 8.35002 11.7167 8.51669L11.9167 9.37502C12.075 10.05 11.7167 10.3167 11.1167 9.95835L10.2834 9.46669C10.1334 9.37502 9.88335 9.37502 9.73335 9.46669L8.90002 9.95835C8.30002 10.3084 7.94169 10.05 8.10002 9.37502L8.30002 8.51669C8.33335 8.35835 8.27502 8.12502 8.15835 8.00835L7.45002 7.31669C7.04169 6.90835 7.17502 6.50002 7.74169 6.40835L8.63335 6.25835C8.78335 6.23335 8.95835 6.10002 9.02502 5.96669L9.51669 4.98335C9.78335 4.45002 10.2167 4.45002 10.4834 4.98335L10.975 5.96669C11.0417 6.10002 11.2167 6.23335 11.375 6.25835L12.2667 6.40835C12.825 6.50002 12.9584 6.90835 12.55 7.31669Z" fill="white"/>
</svg>
