<svg width="113" height="46" viewBox="0 0 113 46" fill="none" xmlns="http://www.w3.org/2000/svg">
<path d="M103.624 35C103.061 35 102.504 34.9128 101.954 34.7384C101.404 34.5639 100.955 34.3224 100.606 34.0138L101.753 31.7797C101.994 31.9944 102.269 32.1621 102.578 32.2828C102.9 32.4036 103.215 32.464 103.523 32.464C103.966 32.464 104.315 32.3566 104.57 32.142C104.838 31.9407 105.079 31.5985 105.294 31.1155L105.857 29.7871L106.099 29.4449L109.982 20.1059H113L108.111 31.5985C107.762 32.4707 107.36 33.155 106.904 33.6515C106.461 34.148 105.965 34.4968 105.415 34.6981C104.878 34.8994 104.281 35 103.624 35ZM105.475 31.357L100.646 20.1059H103.886L107.628 29.1631L105.475 31.357Z" fill="white"/>
<path d="M98.1352 31.0954C96.8609 31.0954 95.8683 30.7733 95.1574 30.1293C94.4465 29.4718 94.091 28.499 94.091 27.2108V17.7108H97.2298V27.1706C97.2298 27.6268 97.3505 27.9824 97.5919 28.2373C97.8334 28.4788 98.162 28.5996 98.5778 28.5996C99.0741 28.5996 99.4966 28.4654 99.8454 28.1971L100.69 30.411C100.369 30.6391 99.9795 30.8136 99.5235 30.9343C99.0808 31.0417 98.6181 31.0954 98.1352 31.0954ZM92.4211 22.7627V20.3475H99.9259V22.7627H92.4211Z" fill="white"/>
<path d="M84.749 30.9344V20.106H87.7469V23.1653L87.3244 22.2797C87.6463 21.5149 88.1627 20.9379 88.8736 20.5488C89.5846 20.1462 90.4497 19.9449 91.4691 19.9449V22.8433C91.335 22.8298 91.2143 22.8231 91.107 22.8231C90.9997 22.8097 90.8857 22.803 90.7649 22.803C89.9065 22.803 89.209 23.0512 88.6724 23.5477C88.1493 24.0308 87.8878 24.7889 87.8878 25.8221V30.9344H84.749Z" fill="white"/>
<path d="M78.9708 30.9344V28.821L78.7696 28.3581V24.5742C78.7696 23.9033 78.5617 23.38 78.1459 23.0043C77.7435 22.6286 77.1197 22.4407 76.2747 22.4407C75.6979 22.4407 75.1278 22.5346 74.5645 22.7225C74.0145 22.8969 73.5451 23.1385 73.1561 23.4471L72.0294 21.2532C72.6195 20.8372 73.3305 20.5152 74.1621 20.2871C74.9937 20.059 75.8388 19.9449 76.6972 19.9449C78.3471 19.9449 79.628 20.3341 80.5402 21.1123C81.4523 21.8906 81.9083 23.1049 81.9083 24.7553V30.9344H78.9708ZM75.6711 31.0954C74.826 31.0954 74.1017 30.9545 73.4981 30.6727C72.8945 30.3775 72.4318 29.9817 72.1098 29.4852C71.7879 28.9887 71.627 28.4319 71.627 27.8147C71.627 27.1706 71.7812 26.607 72.0897 26.124C72.4116 25.6409 72.9146 25.2652 73.5987 24.9969C74.2828 24.7151 75.1748 24.5742 76.2747 24.5742H79.1519V26.4058H76.6167C75.879 26.4058 75.3693 26.5265 75.0876 26.768C74.8193 27.0096 74.6852 27.3115 74.6852 27.6738C74.6852 28.0763 74.8395 28.3983 75.148 28.6399C75.4699 28.868 75.9058 28.982 76.4558 28.982C76.9789 28.982 77.4484 28.8613 77.8642 28.6197C78.28 28.3648 78.5818 27.9958 78.7696 27.5127L79.2525 28.9619C79.0244 29.6596 78.6086 30.1897 78.005 30.5519C77.4014 30.9142 76.6234 31.0954 75.6711 31.0954Z" fill="white"/>
<path d="M64.9993 19.9449C65.8578 19.9449 66.6223 20.1194 67.293 20.4682C67.9771 20.8037 68.5136 21.327 68.9026 22.0381C69.2916 22.7359 69.4861 23.6349 69.4861 24.7352V30.9343H66.3474V25.2182C66.3474 24.3461 66.1529 23.702 65.7639 23.286C65.3883 22.8701 64.8518 22.6621 64.1543 22.6621C63.658 22.6621 63.2086 22.7694 62.8062 22.9841C62.4172 23.1854 62.1087 23.5007 61.8807 23.9301C61.6661 24.3595 61.5588 24.9096 61.5588 25.5805V30.9343H58.42V16H61.5588V23.1049L60.8546 22.1992C61.2436 21.4746 61.8002 20.9177 62.5245 20.5286C63.2489 20.1395 64.0738 19.9449 64.9993 19.9449Z" fill="white"/>
<path d="M50.6255 31.1759C49.539 31.1759 48.5263 31.0014 47.5874 30.6526C46.6619 30.2903 45.8571 29.7804 45.173 29.1229C44.4889 28.4654 43.9524 27.6939 43.5634 26.8083C43.1878 25.9227 43 24.9499 43 23.8898C43 22.8298 43.1878 21.857 43.5634 20.9714C43.9524 20.0858 44.4889 19.3143 45.173 18.6568C45.8705 17.9993 46.682 17.4961 47.6075 17.1473C48.533 16.785 49.5457 16.6038 50.6456 16.6038C51.8663 16.6038 52.9662 16.8185 53.9453 17.2479C54.9379 17.6638 55.7696 18.2811 56.4402 19.0996L54.3477 21.0318C53.8649 20.4816 53.3283 20.0724 52.7381 19.804C52.1479 19.5223 51.5041 19.3814 50.8066 19.3814C50.1493 19.3814 49.5457 19.4887 48.9958 19.7034C48.4458 19.9181 47.9697 20.2267 47.5673 20.6292C47.1649 21.0318 46.8496 21.5081 46.6216 22.0583C46.407 22.6084 46.2997 23.2189 46.2997 23.8898C46.2997 24.5607 46.407 25.1713 46.6216 25.7214C46.8496 26.2716 47.1649 26.7479 47.5673 27.1504C47.9697 27.553 48.4458 27.8616 48.9958 28.0763C49.5457 28.291 50.1493 28.3983 50.8066 28.3983C51.5041 28.3983 52.1479 28.2641 52.7381 27.9958C53.3283 27.714 53.8649 27.2913 54.3477 26.7278L56.4402 28.66C55.7696 29.4785 54.9379 30.1024 53.9453 30.5318C52.9662 30.9612 51.8595 31.1759 50.6255 31.1759Z" fill="white"/>
<path fill-rule="evenodd" clip-rule="evenodd" d="M5.29709 17.2164C2.94596 19.9115 0.691673 23.2537 0.669068 25.7518C0.660264 26.6917 0.967688 27.5123 1.70508 28.1338C2.76631 29.0289 3.93557 29.3445 5.09912 29.3464C6.79947 29.3487 8.48793 28.6791 9.80995 28.1628C12.0364 27.2937 36.6477 16.8616 36.6477 16.8616C36.8852 16.7454 36.8407 16.6007 36.5435 16.673C36.4236 16.7022 9.75023 23.7579 9.75023 23.7579C9.24498 23.8974 8.72291 23.9703 8.19787 23.9748C6.14798 23.9867 4.3239 22.876 4.33865 20.5356C4.34436 19.6198 4.63156 18.5154 5.29709 17.2164Z" fill="white"/>
<path fill-rule="evenodd" clip-rule="evenodd" d="M23.4113 8.76676C21.7436 5.62351 19.4254 2.32323 17.0645 1.35869C16.1763 0.995504 15.2818 0.96321 14.4136 1.3947C13.1635 2.01544 12.4222 2.9528 11.9807 4.00359C11.3359 5.53931 11.3329 7.31821 11.323 8.70804C11.3059 11.0485 11.8996 37.2322 11.8996 37.2322C11.92 37.4907 12.0741 37.5052 12.1179 37.2093C12.1354 37.0899 15.5237 10.3188 15.5237 10.3188C15.5823 9.80953 15.7104 9.31017 15.9046 8.83399C16.6681 6.97704 18.4109 5.74837 20.6253 6.64622C21.4918 6.99748 22.4307 7.6744 23.4113 8.76676Z" fill="white"/>
<path fill-rule="evenodd" clip-rule="evenodd" d="M8.97095 36.0227C10.1866 39.3577 12.0247 42.9344 14.2299 44.2025C15.0594 44.6799 15.9412 44.8303 16.8613 44.5178C18.1861 44.0683 19.0508 43.2377 19.6342 42.255C20.4864 40.8189 20.7366 39.0568 20.9395 37.6811C21.2816 35.3645 24.3314 9.34413 24.3314 9.34413C24.3471 9.08533 24.1965 9.0506 24.112 9.33793C24.078 9.45394 17.0014 35.5291 17.0014 35.5291C16.8725 36.026 16.6762 36.5038 16.4177 36.9498C15.4032 38.6886 13.5058 39.6752 11.4366 38.4925C10.627 38.0298 9.79072 37.2348 8.97095 36.0227Z" fill="white"/>
</svg>
