<?xml version="1.0" standalone="no"?>
<!DOCTYPE svg PUBLIC "-//W3C//DTD SVG 20010904//EN"
 "http://www.w3.org/TR/2001/REC-SVG-20010904/DTD/svg10.dtd">
<svg version="1.0" xmlns="http://www.w3.org/2000/svg"
 width="700.000000pt" height="700.000000pt" viewBox="0 0 700.000000 700.000000"
 preserveAspectRatio="xMidYMid meet">
<metadata>
Created by potrace 1.14, written by Peter Selinger 2001-2017
</metadata>
<g transform="translate(0.000000,700.000000) scale(0.100000,-0.100000)"
fill="#000000" stroke="none">
<path d="M3100 6832 c-109 -15 -304 -128 -368 -214 -7 -9 -18 -23 -25 -30 -48
-48 -124 -194 -151 -289 -20 -67 -45 -194 -54 -274 -9 -78 -8 -869 2 -1325 4
-195 9 -445 11 -555 2 -110 7 -309 10 -442 l5 -241 -47 -15 c-62 -20 -276 -74
-328 -83 -55 -9 -221 -10 -276 -1 -62 10 -137 34 -179 57 -19 10 -45 23 -56
29 -37 17 -128 114 -156 167 -91 169 -78 395 36 662 20 46 36 86 36 89 0 3
-55 -64 -123 -149 -311 -388 -485 -699 -552 -982 -14 -62 -15 -241 -1 -300 33
-140 182 -280 374 -352 122 -47 329 -62 464 -35 29 6 64 12 78 15 94 16 357
108 615 214 66 28 122 48 124 46 3 -2 6 -59 7 -127 5 -200 13 -572 19 -882 11
-511 12 -523 34 -499 8 8 17 55 26 144 5 48 17 145 20 160 2 14 8 58 20 160 3
19 14 105 25 190 11 85 22 175 25 200 3 25 14 113 25 195 11 83 22 173 25 200
3 28 8 66 11 85 2 19 7 55 9 80 3 25 11 83 18 130 l12 85 350 147 c193 81 373
156 400 168 208 90 259 110 263 105 3 -2 -5 -40 -17 -82 -31 -114 -84 -310
-121 -448 -17 -66 -40 -149 -50 -185 -11 -36 -62 -225 -114 -420 -53 -195
-100 -368 -105 -385 -5 -16 -26 -93 -46 -170 -84 -322 -228 -511 -446 -586
-83 -28 -210 -30 -289 -5 -158 52 -315 175 -450 353 -27 36 -50 62 -50 58 0
-9 81 -209 125 -310 28 -65 118 -246 167 -335 93 -170 268 -399 373 -487 206
-173 399 -203 621 -98 151 71 276 200 364 374 35 70 94 243 104 305 3 21 8 41
10 45 3 3 7 27 11 51 3 25 8 52 10 60 3 8 14 80 25 160 11 80 23 161 25 181 3
20 8 59 11 85 2 27 7 61 9 76 3 15 7 47 10 71 2 24 13 118 25 208 11 90 22
187 25 214 7 58 13 109 20 163 6 42 7 53 35 292 11 96 22 191 25 210 2 19 7
62 10 95 3 33 8 71 10 85 3 14 7 48 10 75 3 28 8 66 10 85 3 19 7 55 10 80 3
25 7 61 10 80 2 19 9 78 15 130 15 127 18 142 27 150 4 4 64 31 133 59 69 29
139 59 155 66 17 8 59 26 95 40 36 15 79 33 95 40 17 8 165 71 330 140 165 70
314 132 330 140 17 7 59 25 95 40 36 15 79 33 95 40 17 7 118 50 225 95 107
45 209 88 225 95 17 7 91 39 165 70 177 75 196 85 181 95 -7 4 -63 -6 -124
-22 -62 -16 -119 -30 -127 -32 -8 -2 -51 -14 -95 -26 -44 -12 -120 -32 -170
-45 -49 -13 -176 -46 -282 -75 -106 -28 -200 -53 -210 -55 -26 -7 -158 -41
-228 -60 -33 -9 -231 -61 -440 -116 -209 -55 -387 -102 -396 -105 -12 -3 -16
1 -14 18 2 13 6 48 9 78 4 30 11 89 16 130 5 41 11 96 14 123 4 26 8 66 11 90
3 23 12 101 20 172 9 72 18 150 21 175 2 25 9 79 14 120 5 41 12 100 15 130 3
30 8 71 10 90 24 192 32 262 40 335 3 28 7 64 9 80 3 17 7 53 11 81 7 54 -6
80 -23 47 -9 -18 -40 -125 -47 -164 -2 -11 -9 -34 -15 -52 -9 -29 -86 -311
-95 -347 -2 -8 -22 -82 -44 -165 -23 -82 -89 -325 -147 -540 -59 -214 -111
-408 -117 -430 -5 -22 -15 -45 -21 -52 -10 -10 -1027 -283 -1055 -283 -7 0 -9
13 -6 33 2 17 9 70 15 117 6 47 12 99 15 115 7 56 24 190 30 244 4 30 8 61 10
70 1 9 6 45 10 81 3 36 8 72 10 80 2 8 6 42 10 75 3 33 8 71 10 85 2 14 6 48
10 75 3 28 8 61 10 75 2 14 6 52 10 85 3 33 8 74 10 90 5 33 41 317 49 380 3
22 8 58 11 80 8 66 16 128 21 165 22 175 73 307 163 420 190 239 477 268 766
76 73 -48 109 -78 199 -165 l69 -66 -38 70 c-54 100 -148 255 -218 360 -54 81
-172 242 -186 255 -3 3 -31 34 -61 70 -131 153 -290 284 -420 345 -98 46 -218
69 -300 57z"/>
</g>
</svg>
