<svg width="24" height="24" viewBox="0 0 24 24" fill="none" xmlns="http://www.w3.org/2000/svg">
<path d="M12 2.18213C6.56344 2.18213 2.15625 6.58936 2.15625 12.0259C2.67475 25.0834 21.3272 25.0797 21.8438 12.0258C21.8438 6.58936 17.4366 2.18213 12 2.18213ZM12.6155 5.18595L14.6473 3.83302C16.386 4.40028 17.8998 5.50464 18.9709 6.9871L18.3155 9.32547L15.1061 10.3541L12.6155 8.52358V5.18595ZM9.35281 3.83302L11.3851 5.1862V8.52333L8.89409 10.3541L5.68455 9.32526L5.02924 6.98699C6.10024 5.50451 7.6141 4.40018 9.35281 3.83302ZM5.05437 17.0985C3.96895 15.6257 3.38464 13.8435 3.38731 12.014L5.30641 10.4961L8.51337 11.5241L9.47016 14.5029L7.48507 17.1979L5.05437 17.0985ZM14.6743 20.2088C13.0052 20.7778 10.9946 20.7777 9.32546 20.2087L8.47852 17.9242L10.4664 15.2255H13.5338L15.5213 17.9243L14.6743 20.2088ZM18.9455 17.0985L16.5148 17.1979L14.53 14.503L15.4869 11.524L18.6937 10.4963L20.6127 12.0141C20.6154 13.8436 20.031 15.6258 18.9455 17.0985Z" fill="white"/>
</svg>
