<svg width="24" height="24" viewBox="0 0 24 24" fill="none" xmlns="http://www.w3.org/2000/svg">
<path d="M20.25 1.5H17.625C17.4261 1.5 17.2353 1.57902 17.0947 1.71967C16.954 1.86032 16.875 2.05109 16.875 2.25V4.5H14.625V2.25C14.625 2.05109 14.546 1.86032 14.4053 1.71967C14.2647 1.57902 14.0739 1.5 13.875 1.5H10.125C9.92609 1.5 9.73532 1.57902 9.59467 1.71967C9.45402 1.86032 9.375 2.05109 9.375 2.25V4.5H7.12969V2.25C7.12969 2.05109 7.05067 1.86032 6.91002 1.71967C6.76937 1.57902 6.5786 1.5 6.37969 1.5H3.75C3.55109 1.5 3.36032 1.57902 3.21967 1.71967C3.07902 1.86032 3 2.05109 3 2.25V10.5L6 12C6 14.2655 5.92781 16.4531 5.38078 19.5H18.6192C18.0722 16.4531 18 14.2369 18 12L21 10.5V2.25C21 2.05109 20.921 1.86032 20.7803 1.71967C20.6397 1.57902 20.4489 1.5 20.25 1.5ZM13.5 15H10.5V12C10.5 11.6022 10.658 11.2206 10.9393 10.9393C11.2206 10.658 11.6022 10.5 12 10.5C12.3978 10.5 12.7794 10.658 13.0607 10.9393C13.342 11.2206 13.5 11.6022 13.5 12V15ZM20.25 21H3.75C3.55109 21 3.36032 21.079 3.21967 21.2197C3.07902 21.3603 3 21.5511 3 21.75V23.25C3 23.4489 3.07902 23.6397 3.21967 23.7803C3.36032 23.921 3.55109 24 3.75 24H20.25C20.4489 24 20.6397 23.921 20.7803 23.7803C20.921 23.6397 21 23.4489 21 23.25V21.75C21 21.5511 20.921 21.3603 20.7803 21.2197C20.6397 21.079 20.4489 21 20.25 21Z" fill="white"/>
</svg>
