<svg width="24" height="24" viewBox="0 0 24 24" fill="none" xmlns="http://www.w3.org/2000/svg">
<path d="M12 1.5C7.425 1.5 3.75 5.175 3.75 9.75C3.75 14.325 7.425 18 12 18C16.575 18 20.25 14.325 20.25 9.75C20.25 5.175 16.575 1.5 12 1.5ZM12 3C14.1 3 16.05 3.975 17.25 5.55C13.8 4.875 10.2 4.875 6.75 5.55C8.025 3.975 9.9 3 12 3ZM5.25 9.9C7.275 11.175 8.625 13.35 8.925 15.75C6.75 14.625 5.325 12.45 5.25 9.9ZM12 12C10.725 12 9.75 11.025 9.75 9.75C9.75 8.475 10.725 7.5 12 7.5C13.275 7.5 14.25 8.475 14.25 9.75C14.25 11.025 13.275 12 12 12ZM15.075 15.75C15.375 13.35 16.725 11.175 18.75 9.9C18.675 12.45 17.25 14.625 15.075 15.75Z" fill="white"/>
<path d="M18 19.5749L16.875 18.2249C15.45 19.0499 13.8 19.4999 12 19.4999C10.2 19.4999 8.55004 19.0499 7.12504 18.1499L6.00004 19.5749C5.40004 20.2499 5.32504 21.1499 5.70004 21.9749C6.07504 22.7999 6.82504 23.2499 7.72504 23.2499H16.35C17.25 23.2499 18 22.7249 18.375 21.9749C18.75 21.2249 18.6 20.2499 18 19.5749Z" fill="white"/>
</svg>
