<svg width="24" height="24" viewBox="0 0 24 24" fill="none" xmlns="http://www.w3.org/2000/svg">
<path fill-rule="evenodd" clip-rule="evenodd" d="M21.1649 9.97694L21.1522 6C21.1522 4.71388 20.023 3.56595 18.7383 3.56595H14.2419C14.2475 1.69113 12.7143 0.811768 10.8254 0.811768C8.93785 0.811768 7.41032 1.69113 7.41032 3.51795C7.41032 3.53489 3.83009 3.56595 3.83009 3.56595C2.5482 3.56595 1.45691 4.71389 1.45691 6L1.50632 9.8273C3.37267 9.84989 4.88044 11.3181 4.88044 13.1322C4.88044 14.9449 3.37409 16.4118 1.50632 16.4358V20.9647C1.50632 22.2508 2.54538 23.2941 3.82867 23.2941H18.7383C20.0216 23.2941 21.2016 22.2508 21.2016 20.9647L21.1861 16.5656C22.8265 16.3694 23.9661 14.9774 23.9661 13.272C23.9661 11.5567 22.8181 10.1633 21.1649 9.97694Z" fill="white"/>
</svg>
