<svg width="24" height="24" viewBox="0 0 24 24" fill="none" xmlns="http://www.w3.org/2000/svg">
<path d="M12 21C13.1819 21 14.3522 20.7672 15.4442 20.3149C16.5361 19.8626 17.5282 19.1997 18.364 18.364C19.1997 17.5282 19.8626 16.5361 20.3149 15.4442C20.7672 14.3522 21 13.1819 21 12C21 10.8181 20.7672 9.64778 20.3149 8.55585C19.8626 7.46392 19.1997 6.47177 18.364 5.63604C17.5282 4.80031 16.5361 4.13738 15.4442 3.68508C14.3522 3.23279 13.1819 3 12 3C9.61305 3 7.32387 3.94821 5.63604 5.63604C3.94821 7.32387 3 9.61305 3 12C3 14.3869 3.94821 16.6761 5.63604 18.364C7.32387 20.0518 9.61305 21 12 21ZM12 22.5C9.21523 22.5 6.54451 21.3938 4.57538 19.4246C2.60625 17.4555 1.5 14.7848 1.5 12C1.5 9.21523 2.60625 6.54451 4.57538 4.57538C6.54451 2.60625 9.21523 1.5 12 1.5C14.7848 1.5 17.4555 2.60625 19.4246 4.57538C21.3938 6.54451 22.5 9.21523 22.5 12C22.5 14.7848 21.3938 17.4555 19.4246 19.4246C17.4555 21.3938 14.7848 22.5 12 22.5Z" fill="white"/>
<path d="M12 2.25C12.1989 2.25 12.3897 2.32902 12.5303 2.46967C12.671 2.61032 12.75 2.80109 12.75 3V7.5C12.75 7.69891 12.671 7.88968 12.5303 8.03033C12.3897 8.17098 12.1989 8.25 12 8.25C11.8011 8.25 11.6103 8.17098 11.4697 8.03033C11.329 7.88968 11.25 7.69891 11.25 7.5V3C11.25 2.80109 11.329 2.61032 11.4697 2.46967C11.6103 2.32902 11.8011 2.25 12 2.25ZM12 15.75C12.1989 15.75 12.3897 15.829 12.5303 15.9697C12.671 16.1103 12.75 16.3011 12.75 16.5V21C12.75 21.1989 12.671 21.3897 12.5303 21.5303C12.3897 21.671 12.1989 21.75 12 21.75C11.8011 21.75 11.6103 21.671 11.4697 21.5303C11.329 21.3897 11.25 21.1989 11.25 21V16.5C11.25 16.3011 11.329 16.1103 11.4697 15.9697C11.6103 15.829 11.8011 15.75 12 15.75ZM2.25 12C2.25 11.8011 2.32902 11.6103 2.46967 11.4697C2.61032 11.329 2.80109 11.25 3 11.25H7.5C7.69891 11.25 7.88968 11.329 8.03033 11.4697C8.17098 11.6103 8.25 11.8011 8.25 12C8.25 12.1989 8.17098 12.3897 8.03033 12.5303C7.88968 12.671 7.69891 12.75 7.5 12.75H3C2.80109 12.75 2.61032 12.671 2.46967 12.5303C2.32902 12.3897 2.25 12.1989 2.25 12ZM15.75 12C15.75 11.8011 15.829 11.6103 15.9697 11.4697C16.1103 11.329 16.3011 11.25 16.5 11.25H21C21.1989 11.25 21.3897 11.329 21.5303 11.4697C21.671 11.6103 21.75 11.8011 21.75 12C21.75 12.1989 21.671 12.3897 21.5303 12.5303C21.3897 12.671 21.1989 12.75 21 12.75H16.5C16.3011 12.75 16.1103 12.671 15.9697 12.5303C15.829 12.3897 15.75 12.1989 15.75 12Z" fill="white"/>
</svg>
