<svg width="24" height="24" viewBox="0 0 24 24" fill="none" xmlns="http://www.w3.org/2000/svg">
<path d="M18.33 5.67L6.58996 17.41C6.14996 17.85 5.40996 17.79 5.04996 17.27C3.80996 15.46 3.07996 13.32 3.07996 11.12V6.73C3.07996 5.91 3.69996 4.98 4.45996 4.67L10.03 2.39C11.29 1.87 12.69 1.87 13.95 2.39L18 4.04C18.66 4.31 18.83 5.17 18.33 5.67Z" fill="white"/>
<path d="M19.27 7.04012C19.92 6.49012 20.91 6.96012 20.91 7.81012V11.1201C20.91 16.0101 17.36 20.5901 12.51 21.9301C12.18 22.0201 11.82 22.0201 11.48 21.9301C10.06 21.5301 8.74001 20.8601 7.61001 19.9801C7.13001 19.6101 7.08001 18.9101 7.50001 18.4801C9.68001 16.2501 16.06 9.75012 19.27 7.04012Z" fill="white"/>
</svg>
