<svg width="24" height="24" viewBox="0 0 24 24" fill="none" xmlns="http://www.w3.org/2000/svg">
<g clip-path="url(#clip0_138_966)">
<path d="M15.1968 2.00621L15.4593 1.61246L15.7218 1.22809L16.3031 0.356215C16.3781 0.25309 16.35 0.103089 16.2375 0.0374637C16.1343 -0.0375363 15.9843 -0.00941017 15.9187 0.10309L15.3 1.03121L15.0375 1.42496L14.775 1.81871C13.9312 1.49059 13.0031 1.31246 12.0093 1.31246C11.025 1.31246 10.0875 1.49059 9.2437 1.81871L8.9812 1.42496L8.7187 1.03121L8.09995 0.10309C8.02495 -3.517e-05 7.88433 -0.0281613 7.7812 0.0374637C7.67808 0.112464 7.64995 0.25309 7.71558 0.356215L8.29683 1.22809L8.55933 1.61246L8.82183 2.00621C6.85308 2.92496 5.51245 4.65934 5.51245 6.65621H18.5156C18.5062 4.65934 17.175 2.92496 15.1968 2.00621ZM9.21558 4.79059C8.8312 4.79059 8.52183 4.48121 8.52183 4.09684C8.52183 3.71246 8.8312 3.40309 9.21558 3.40309C9.59995 3.40309 9.90933 3.71246 9.90933 4.09684C9.90933 4.48121 9.59995 4.79059 9.21558 4.79059ZM14.7843 4.79059C14.4 4.79059 14.0906 4.48121 14.0906 4.09684C14.0906 3.71246 14.4 3.40309 14.7843 3.40309C15.1687 3.40309 15.4781 3.71246 15.4781 4.09684C15.4875 4.48121 15.1781 4.79059 14.7843 4.79059Z" fill="white"/>
<path d="M5.59678 7.57495L5.49365 7.58433V8.73745V9.68433V17.8031C5.49365 18.6187 6.1499 19.275 6.96553 19.275H8.0249C7.9874 19.3968 7.96865 19.5281 7.96865 19.6593V19.7343V20.2031V22.6031C7.96865 23.3718 8.59678 24 9.36553 24C10.1343 24 10.7624 23.3718 10.7624 22.6031V20.2031V19.7343V19.6593C10.7624 19.5281 10.7437 19.3968 10.7062 19.275H13.2937C13.2562 19.3968 13.2374 19.5281 13.2374 19.6593V19.7343V20.2031V22.6031C13.2374 23.3718 13.8655 24 14.6343 24C15.403 24 16.0312 23.3718 16.0312 22.6031V20.2031V19.7343V19.6593C16.0312 19.5281 16.0124 19.3968 15.9749 19.275H17.0343C17.8499 19.275 18.5062 18.6187 18.5062 17.8031V9.68433V8.73745V7.57495H18.403H5.59678Z" fill="white"/>
<path d="M3.17812 7.58423C2.40937 7.58423 1.78125 8.21235 1.78125 8.9811V14.9436C1.78125 15.7124 2.40937 16.3405 3.17812 16.3405C3.94687 16.3405 4.575 15.7124 4.575 14.9436V8.9811C4.56563 8.20298 3.94687 7.58423 3.17812 7.58423Z" fill="white"/>
<path d="M20.8312 7.58423C20.0625 7.58423 19.4343 8.21235 19.4343 8.9811V14.9436C19.4343 15.7124 20.0625 16.3405 20.8312 16.3405C21.6 16.3405 22.2281 15.7124 22.2281 14.9436V8.9811C22.2187 8.20298 21.6 7.58423 20.8312 7.58423Z" fill="white"/>
</g>
<defs>
<clipPath id="clip0_138_966">
<rect width="24" height="24" fill="white"/>
</clipPath>
</defs>
</svg>
