<svg width="24" height="24" viewBox="0 0 24 24" fill="none" xmlns="http://www.w3.org/2000/svg">
<path d="M11.1923 6.05993C11.1735 6.11393 11.0865 6.10568 11.037 6.12143C10.9928 6.14468 10.9568 6.18518 10.9058 6.18518C10.8593 6.18518 10.7843 6.16643 10.7783 6.12143C10.7693 6.05993 10.8608 5.99693 10.9185 5.99693C10.956 5.97893 10.9995 5.96918 11.0453 5.96918C11.0873 5.96918 11.127 5.97743 11.163 5.99318L11.1608 5.99243C11.1773 5.99918 11.1893 6.01493 11.1893 6.03368C11.1893 6.03593 11.1893 6.03743 11.1885 6.03968V6.05843H11.1915L11.1923 6.05993ZM11.7083 6.05993V6.03968C11.7023 6.02093 11.7203 6.00068 11.7353 5.99318C11.7698 5.97818 11.8103 5.96918 11.853 5.96918C11.8988 5.96918 11.9423 5.97968 11.9805 5.99768L11.979 5.99693C12.0383 5.99693 12.129 6.05993 12.1193 6.12368C12.114 6.16943 12.0398 6.18518 11.9925 6.18518C11.9408 6.18518 11.9063 6.14468 11.8605 6.12143C11.8118 6.10418 11.724 6.11393 11.7075 6.06068L11.7083 6.05993ZM12.7223 7.54343C12.3233 7.79618 11.8515 7.97393 11.346 8.04293L11.328 8.04518C10.8735 8.01893 10.4603 7.85918 10.1228 7.60418L10.128 7.60793C9.98403 7.48268 9.86553 7.35668 9.77853 7.29368C9.62478 7.16843 9.64353 6.98168 9.70953 6.98168C9.81153 6.99668 9.83028 7.10693 9.89628 7.16918C9.98628 7.23068 10.098 7.35668 10.2338 7.48118C10.5315 7.72718 10.908 7.88693 11.3213 7.91843L11.328 7.91918C11.8185 7.87643 12.2648 7.71893 12.6503 7.47518L12.6383 7.48268C12.8213 7.35593 13.0553 7.16993 13.2458 7.04468C13.392 6.91718 13.3853 6.79418 13.5075 6.79418C13.6275 6.80918 13.5398 6.91943 13.3695 7.10543C13.185 7.24643 12.9743 7.39118 12.756 7.52543L12.723 7.54418L12.7223 7.54343ZM6.01278 16.0477H6.02178C6.07353 16.0477 6.12453 16.0529 6.17403 16.0619L6.16878 16.0612C6.57678 16.1662 6.91278 16.4197 7.12353 16.7594L7.12728 16.7662L7.98003 18.3254L7.98303 18.3284C8.32578 18.9082 8.69403 19.4099 9.10578 19.8727L9.09753 19.8629C9.46503 20.2529 9.71253 20.7599 9.77928 21.3224L9.78078 21.3344V21.3404C9.77178 21.9532 9.32103 22.4587 8.73378 22.5524L8.72703 22.5532C8.57703 22.5764 8.40303 22.5892 8.22678 22.5892C7.58403 22.5892 6.98253 22.4144 6.46653 22.1092L6.48228 22.1182C5.69253 21.7874 4.77603 21.5827 3.81603 21.5542H3.80478C3.52578 21.5354 3.28278 21.3929 3.12903 21.1822L3.12753 21.1799C3.08703 21.0494 3.06378 20.8994 3.06378 20.7434C3.06378 20.4809 3.12978 20.2342 3.24678 20.0189L3.24303 20.0272V20.0234L3.24528 20.0204C3.27603 19.8794 3.29403 19.7167 3.29403 19.5502C3.29403 19.3447 3.26703 19.1459 3.21603 18.9569L3.21978 18.9727C3.18903 18.8602 3.17103 18.7304 3.17103 18.5962C3.17103 18.4147 3.20328 18.2414 3.26328 18.0809L3.26028 18.0914C3.41028 17.7787 3.63153 17.7164 3.90678 17.5919C4.23528 17.4922 4.52103 17.3414 4.77003 17.1472L4.76403 17.1517H4.76553V17.1494C5.00553 16.8982 5.18253 16.5862 5.39178 16.3642C5.53803 16.1774 5.76078 16.0567 6.01203 16.0492H6.01353L6.01278 16.0477ZM16.1483 16.0019C16.1475 16.0147 16.1475 16.0304 16.1475 16.0462C16.1475 16.6034 16.4843 17.0819 16.9658 17.2897L16.9748 17.2934C17.0108 17.2957 17.0528 17.2972 17.0948 17.2972C17.718 17.2972 18.276 17.0189 18.651 16.5794L18.6533 16.5764L18.8513 16.5674C18.891 16.5614 18.9368 16.5584 18.9833 16.5584C19.239 16.5584 19.4723 16.6574 19.6455 16.8194L19.6448 16.8187L19.6478 16.8217C19.8345 17.0474 19.9643 17.3264 20.013 17.6332L20.0145 17.6429C20.0558 18.0217 20.193 18.3629 20.4023 18.6479L20.3985 18.6419C20.7105 18.9089 20.9273 19.2794 20.9933 19.7002L20.9948 19.7099L20.9978 19.7032V19.7197L20.9948 19.7084C20.9805 19.9537 20.8215 20.0797 20.5283 20.2664C19.6403 20.6392 18.8775 21.1349 18.2205 21.7424L18.2258 21.7379C17.7698 22.3319 17.1 22.7422 16.3335 22.8524L16.3178 22.8539C16.2623 22.8614 16.1978 22.8659 16.1325 22.8659C15.5565 22.8659 15.0615 22.5179 14.8455 22.0214L14.8418 22.0124L14.8373 22.0094C14.7675 21.7949 14.7278 21.5482 14.7278 21.2924C14.7278 20.9804 14.787 20.6827 14.8958 20.4089L14.8898 20.4254C15.0653 19.9244 15.216 19.3259 15.3158 18.7094L15.324 18.6472C15.336 18.0382 15.402 17.4524 15.5175 16.8847L15.507 16.9469C15.5708 16.5584 15.7928 16.2314 16.1025 16.0282L16.1078 16.0252L16.1498 16.0049L16.1483 16.0019ZM14.1 7.60643C14.55 9.21668 15.1043 10.6079 15.7853 11.9242L15.726 11.7989C16.1858 12.6164 16.5435 13.5652 16.7483 14.5702L16.7588 14.6332C16.7655 14.6332 16.7738 14.6332 16.782 14.6332C16.9448 14.6332 17.1023 14.6549 17.2523 14.6962L17.2395 14.6932C17.322 14.3969 17.3693 14.0572 17.3693 13.7062C17.3693 12.6367 16.929 11.6692 16.2195 10.9769L16.2188 10.9762C16.0125 10.7887 16.0013 10.6619 16.1033 10.6619C16.8315 11.3444 17.37 12.2204 17.637 13.2074L17.646 13.2457C17.7128 13.4924 17.751 13.7759 17.751 14.0684C17.751 14.3317 17.7203 14.5882 17.6618 14.8334L17.6663 14.8109C17.7218 14.8394 17.7863 14.8612 17.8545 14.8732L17.859 14.8739C18.8265 15.3742 19.1835 15.7529 19.0118 16.3147V16.2742C18.9555 16.2712 18.8993 16.2742 18.843 16.2742H18.828C18.9698 15.8362 18.6578 15.5009 17.8298 15.1267C16.9725 14.7517 16.287 14.8117 16.1708 15.5624C16.1625 15.5992 16.1565 15.6419 16.1543 15.6862V15.6884C16.0995 15.7109 16.0343 15.7319 15.9668 15.7469L15.9585 15.7484C15.5775 16.0004 15.306 16.3927 15.2168 16.8502L15.2153 16.8607C15.1043 17.3819 15.0345 17.9857 15.0233 18.6029V18.6119V18.6149C14.955 19.0927 14.8508 19.5202 14.7098 19.9297L14.7248 19.8802C13.9875 20.4832 13.0365 20.8477 11.9993 20.8477C11.1518 20.8477 10.3613 20.6039 9.69453 20.1824L9.71253 20.1929C9.60303 20.0032 9.47778 19.8389 9.33528 19.6927L9.33603 19.6934C9.26328 19.5734 9.17778 19.4707 9.07953 19.3822L9.07803 19.3814C9.23328 19.3814 9.38328 19.3582 9.52503 19.3154L9.51378 19.3184C9.64878 19.2547 9.75228 19.1444 9.80703 19.0094L9.80853 19.0057C9.82203 18.9359 9.83028 18.8564 9.83028 18.7747C9.83028 18.4409 9.69903 18.1387 9.48453 17.9152L9.48528 17.9159C9.02103 17.3452 8.46603 16.8697 7.83828 16.5059L7.80978 16.4909C7.30653 16.1999 6.92553 15.7447 6.73728 15.1994L6.73203 15.1829C6.66228 14.9444 6.62178 14.6699 6.62178 14.3864C6.62178 14.1217 6.65703 13.8652 6.72228 13.6207L6.71778 13.6409C7.00053 12.6554 7.40853 11.7952 7.93278 11.0189L7.91178 11.0512C8.01228 10.9904 7.94628 11.1779 7.52928 11.9639C7.17378 12.4987 6.96153 13.1564 6.96153 13.8637C6.96153 14.4937 7.12953 15.0839 7.42353 15.5932L7.41453 15.5767C7.45353 14.5949 7.67328 13.6739 8.04003 12.8324L8.02128 12.8812C8.81253 11.4547 9.41178 9.79793 9.72753 8.04218L9.74253 7.94393C9.78753 7.97768 9.94578 8.07068 10.0133 8.13293C10.2173 8.25743 10.3695 8.44493 10.566 8.56868C10.7663 8.76368 11.0408 8.88368 11.3423 8.88368C11.358 8.88368 11.3738 8.88368 11.3895 8.88293H11.3873C11.424 8.88593 11.4578 8.88893 11.49 8.88893C11.8343 8.88218 12.1553 8.78993 12.4343 8.63243L12.4245 8.63768C12.696 8.51243 12.912 8.32493 13.1183 8.26268H13.1228C13.524 8.15393 13.86 7.92218 14.0978 7.61093L14.1008 7.60643H14.1ZM11.4758 5.59868C11.478 5.59868 11.4803 5.59868 11.4825 5.59868C11.9093 5.59868 12.303 5.73893 12.6203 5.97593L12.615 5.97218C12.8985 6.14768 13.2255 6.29693 13.5713 6.40268L13.6013 6.41018H13.6043C13.7888 6.49268 13.941 6.62093 14.0498 6.78068L14.052 6.78443V6.66143C14.0865 6.73043 14.1075 6.81218 14.1075 6.89843C14.1075 6.97193 14.0925 7.04168 14.0663 7.10543L14.0678 7.10168C13.8518 7.48193 13.5015 7.76468 13.083 7.88768L13.071 7.89068V7.89218C12.8198 8.01893 12.6015 8.20418 12.345 8.32793C12.0825 8.48543 11.7668 8.57843 11.4285 8.57843C11.4173 8.57843 11.406 8.57843 11.3948 8.57843H11.3963C11.3798 8.57918 11.3603 8.57993 11.3408 8.57993C11.2103 8.57993 11.0843 8.55668 10.9688 8.51318L10.9763 8.51543C10.857 8.45018 10.7588 8.38868 10.6635 8.32268L10.674 8.33018C10.5038 8.18093 10.3163 8.03768 10.1198 7.90643L10.1003 7.89443V7.88993H10.0958C9.81453 7.74068 9.59328 7.51193 9.45678 7.23293L9.45303 7.22393C9.43278 7.17368 9.42153 7.11518 9.42153 7.05443C9.42153 6.89093 9.50553 6.74693 9.63228 6.66293L9.63378 6.66218C9.84378 6.53543 9.99003 6.40793 10.0868 6.34718C10.1843 6.27818 10.221 6.25193 10.2518 6.22418H10.2533V6.22118C10.4543 5.96693 10.7205 5.77193 11.0273 5.66168L11.0393 5.65793C11.1698 5.62043 11.3198 5.59868 11.475 5.59718L11.4758 5.59868ZM10.1918 3.99968H10.2255C10.3665 4.00268 10.4963 4.04993 10.6013 4.12718L10.5998 4.12568C10.734 4.24493 10.8435 4.38968 10.9185 4.55318L10.9215 4.56143C11.0063 4.74518 11.0588 4.95893 11.0648 5.18393V5.18618V5.18993C11.0678 5.22443 11.0693 5.26418 11.0693 5.30393C11.0693 5.35118 11.067 5.39843 11.0625 5.44493L11.0633 5.43893V5.51393C11.0355 5.52068 11.0108 5.53043 10.9853 5.53643C10.842 5.59568 10.7213 5.65868 10.6065 5.72993L10.617 5.72393C10.623 5.68268 10.626 5.63543 10.626 5.58743C10.626 5.54768 10.6238 5.50793 10.6193 5.46893L10.62 5.47343V5.45918C10.6065 5.34368 10.5795 5.23793 10.5398 5.13818L10.5428 5.14643C10.512 5.04743 10.458 4.96343 10.3875 4.89668C10.3463 4.85918 10.2915 4.83593 10.2308 4.83593C10.2255 4.83593 10.2203 4.83593 10.215 4.83668H10.2158H10.1963C10.119 4.84493 10.0545 4.89293 10.0223 4.95893L10.0215 4.96043C9.96378 5.03018 9.92403 5.11643 9.90903 5.21093V5.21393C9.89178 5.27843 9.88278 5.35268 9.88278 5.42918C9.88278 5.46218 9.88428 5.49518 9.88803 5.52743V5.52368V5.53793C9.90003 5.65343 9.92703 5.75993 9.96603 5.85893L9.96303 5.85068C9.99453 5.94968 10.0478 6.03443 10.1183 6.10193C10.1273 6.11093 10.1378 6.11843 10.1498 6.12443H10.1505C10.0883 6.16418 10.0343 6.20618 9.98478 6.25268L9.98553 6.25193C9.95178 6.28193 9.91053 6.30443 9.86478 6.31493L9.86253 6.31568C9.77028 6.20543 9.68478 6.08168 9.61128 5.95118L9.60528 5.93918C9.52053 5.75543 9.46803 5.54243 9.45978 5.31668V5.31368C9.45678 5.27768 9.45528 5.23568 9.45528 5.19293C9.45528 5.01218 9.48453 4.83818 9.53778 4.67543L9.53478 4.68743C9.59028 4.49393 9.68103 4.32668 9.80178 4.18418L9.80028 4.18643C9.89553 4.07393 10.035 4.00268 10.1918 3.99893H10.1925L10.1918 3.99968ZM12.9683 3.94418H12.9803C12.981 3.94418 12.9818 3.94418 12.9833 3.94418C13.1895 3.94418 13.3785 4.01393 13.53 4.13093L13.5278 4.12943C13.6995 4.26218 13.8375 4.42943 13.9343 4.62068L13.938 4.62893C14.0288 4.82843 14.085 5.06018 14.0933 5.30468V5.30768C14.0933 5.28893 14.0985 5.27018 14.0985 5.25143V5.34968L14.0948 5.33018L14.091 5.30768C14.0888 5.54768 14.0378 5.77418 13.9463 5.98043L13.9508 5.96993C13.9043 6.09218 13.8368 6.19718 13.7513 6.28418C13.7288 6.27068 13.701 6.25793 13.6733 6.24668L13.6688 6.24518C13.5675 6.21368 13.479 6.17093 13.3988 6.11843L13.4025 6.12068C13.3448 6.09668 13.2758 6.07568 13.2045 6.05993L13.1963 6.05843C13.257 6.00143 13.3133 5.94068 13.365 5.87618L13.368 5.87243C13.4153 5.76143 13.4445 5.63318 13.4505 5.49818V5.49593V5.47718C13.4505 5.47118 13.4505 5.46518 13.4505 5.45843C13.4505 5.33093 13.4295 5.20868 13.3905 5.09468L13.3928 5.10293C13.3455 4.98368 13.2878 4.88093 13.2188 4.78718L13.2218 4.79093C13.1565 4.72493 13.0703 4.67993 12.9735 4.66718H12.9713H12.9563C12.9555 4.66718 12.954 4.66718 12.9533 4.66718C12.8543 4.66718 12.7658 4.71593 12.7118 4.79018L12.711 4.79093C12.624 4.87568 12.558 4.98068 12.5205 5.09843L12.519 5.10368C12.4718 5.21393 12.441 5.34218 12.435 5.47568V5.47793V5.49593C12.4365 5.58593 12.4433 5.67293 12.4553 5.75768L12.4538 5.74643C12.273 5.68343 12.0435 5.61968 11.8845 5.55743C11.8755 5.50268 11.8695 5.43818 11.868 5.37218V5.36993V5.35118C11.8673 5.33618 11.8673 5.31893 11.8673 5.30168C11.8673 5.05868 11.919 4.82843 12.0128 4.62068L12.0083 4.63118C12.0878 4.42193 12.228 4.25018 12.4073 4.13393L12.411 4.13168C12.564 4.01468 12.7583 3.94418 12.9683 3.94418ZM12.4725 0.75293C12.327 0.75293 12.177 0.76043 12.0225 0.77243C8.06178 1.08443 9.11253 5.27768 9.05178 6.67493C9.01428 7.74443 8.65128 8.72168 8.05803 9.51893L8.06778 9.50543C7.01253 10.7069 6.15153 12.1109 5.55453 13.6477L5.52228 13.7429C5.32878 14.2567 5.21628 14.8499 5.21628 15.4694C5.21628 15.6832 5.22978 15.8939 5.25528 16.1002L5.25303 16.0754C5.21103 16.1099 5.17578 16.1519 5.15103 16.1999L5.15028 16.2022C4.90653 16.4534 4.72878 16.7647 4.52853 16.9882C4.31628 17.1509 4.06728 17.2792 3.79728 17.3587L3.78153 17.3624C3.43353 17.4667 3.15003 17.6939 2.97528 17.9932L2.97153 17.9999C2.89353 18.1589 2.84778 18.3457 2.84778 18.5437C2.84778 18.5512 2.84778 18.5579 2.84778 18.5654C2.84928 18.7439 2.86728 18.9164 2.90253 19.0844L2.89953 19.0672C2.94153 19.2314 2.96553 19.4204 2.96553 19.6147C2.96553 19.7422 2.95503 19.8674 2.93478 19.9897L2.93628 19.9762C2.81103 20.2109 2.73828 20.4899 2.73828 20.7862C2.73828 20.9947 2.77428 21.1942 2.84103 21.3794L2.83728 21.3674C3.04203 21.6584 3.35178 21.8639 3.71028 21.9292L3.71853 21.9307C4.67403 22.0109 5.55678 22.2104 6.38928 22.5157L6.31878 22.4932C6.84228 22.8044 7.47303 22.9882 8.14578 22.9882C8.36628 22.9882 8.58228 22.9687 8.79228 22.9304L8.77053 22.9334C9.27078 22.8202 9.67878 22.4939 9.89853 22.0567L9.90303 22.0469C10.4535 22.0439 11.0558 21.7949 12.021 21.7342C12.6758 21.6802 13.4963 21.9847 14.436 21.9217C14.4638 22.0409 14.5005 22.1452 14.547 22.2434L14.5425 22.2337L14.5455 22.2367C14.8335 22.8397 15.438 23.2492 16.1385 23.2492C16.1993 23.2492 16.2593 23.2462 16.3185 23.2402L16.311 23.2409C17.1743 23.1134 17.9153 22.6649 18.4208 22.0237L18.426 22.0169C19.0583 21.4409 19.7963 20.9662 20.6048 20.6272L20.655 20.6084C20.979 20.4652 21.2115 20.1697 21.2625 19.8142L21.2633 19.8089C21.219 19.2884 20.9693 18.8347 20.5973 18.5219L20.5943 18.5197V18.4289L20.5913 18.4259C20.4308 18.1784 20.3183 17.8844 20.2755 17.5694L20.274 17.5582C20.2343 17.1734 20.0655 16.8337 19.8128 16.5779H19.8098C19.7543 16.5277 19.6943 16.5149 19.6335 16.4512C19.584 16.4159 19.5225 16.3942 19.4558 16.3912C19.602 15.9397 19.686 15.4207 19.686 14.8814C19.686 14.1764 19.5413 13.5052 19.2803 12.8962L19.293 12.9292C18.765 11.6752 18.0788 10.5959 17.244 9.65243L17.2545 9.66518C16.4258 8.85368 15.8835 7.75193 15.7935 6.52493L15.7928 6.50918C15.8175 4.49243 16.014 0.76118 12.471 0.75593L12.4725 0.75293Z" fill="white"/>
</svg>
