<svg width="24" height="24" viewBox="0 0 24 24" fill="none" xmlns="http://www.w3.org/2000/svg">
<g clip-path="url(#clip0_138_953)">
<path d="M14.1757 24H17.8515C21.2265 24 24 21.2265 24 17.8515V6.1485C24 2.7735 21.2265 0 17.8515 0H14.1015C14.0273 0 13.9493 0.07425 13.9493 0.1485V23.8515C13.9493 23.9258 14.0235 24 14.1757 24ZM18.75 10.8007C20.1015 10.8007 21.1485 11.9258 21.1485 13.1993C21.1485 14.5508 20.0235 15.5978 18.75 15.5978C17.3985 15.5978 16.3515 14.5508 16.3515 13.1993C16.2735 11.8515 17.3985 10.8007 18.75 10.8007ZM11.3985 0H6.1485C2.7735 0 0 2.7735 0 6.1485V17.8515C0 21.2265 2.7735 24 6.1485 24H11.3985C11.4727 24 11.5507 23.9258 11.5507 23.8515V0.1485C11.5507 0.07425 11.4765 0 11.3985 0ZM9.67575 22.0507H6.1485C3.82425 22.0507 1.94925 20.1758 1.94925 17.8515V6.1485C1.94925 3.82425 3.82425 1.94925 6.1485 1.94925H9.6015L9.67575 22.0507ZM3.75 7.19925C3.75 8.47275 4.7265 9.44925 6 9.44925C7.2735 9.44925 8.25 8.47275 8.25 7.19925C8.25 5.92575 7.2735 4.94925 6 4.94925C4.7265 4.94925 3.75 5.92575 3.75 7.19925Z" fill="white"/>
</g>
<defs>
<clipPath id="clip0_138_953">
<rect width="24" height="24" fill="white"/>
</clipPath>
</defs>
</svg>
