<svg width="24" height="24" viewBox="0 0 24 24" fill="none" xmlns="http://www.w3.org/2000/svg">
<path d="M2.44655 18.186C0.666051 17.6753 0.371301 16.623 1.17905 16.0118C1.76105 15.6293 2.43005 15.2963 3.13805 15.0458L3.2033 15.0255L8.46605 13.1385V15.306L4.69355 16.6853C4.0328 16.9395 3.9203 17.2778 4.4693 17.4593C4.74305 17.529 5.05655 17.5695 5.3798 17.5695C5.84105 17.5695 6.2828 17.4878 6.69155 17.3385L6.6653 17.3468L8.4818 16.6853V18.6293C8.3693 18.657 8.2418 18.6705 8.11655 18.6975C7.5353 18.7995 6.8663 18.858 6.1838 18.858C4.8503 18.858 3.5693 18.6345 2.3753 18.2235L2.4578 18.2483L2.44655 18.186ZM13.5368 18.408L19.4378 16.2758C20.1076 16.0343 20.2118 15.69 19.6681 15.5093C19.3958 15.4425 19.0838 15.4043 18.7621 15.4043C18.2956 15.4043 17.8471 15.4853 17.4316 15.633L17.4593 15.6248L13.5181 17.0303V14.793L13.7431 14.7135C14.5306 14.4518 15.4561 14.2485 16.4108 14.1428L16.4731 14.1368C16.8241 14.0993 17.2306 14.0783 17.6423 14.0783C19.0501 14.0783 20.4001 14.3265 21.6496 14.7825L21.5686 14.7563C23.3003 15.3195 23.4803 16.1355 23.0453 16.698C22.6261 17.1158 22.1191 17.4465 21.5543 17.6595L21.5251 17.6693L13.5173 20.5815V18.4298L13.5368 18.408ZM9.1733 3.18604V19.6313L12.8423 20.8133V7.02079C12.8423 6.37429 13.1273 5.94229 13.5863 6.09229C14.1826 6.26104 14.2988 6.85503 14.2988 7.50303V13.0095C16.5863 14.1278 18.3871 13.0073 18.3871 10.0553C18.3871 7.02153 17.3318 5.67379 14.2276 4.59379C12.8888 4.10779 11.1976 3.62329 9.4673 3.24004L9.17555 3.18604H9.1733Z" fill="white"/>
</svg>
