<svg width="24" height="24" viewBox="0 0 24 24" fill="none" xmlns="http://www.w3.org/2000/svg">
<path d="M22 12.2241V12.2225C22 9.3405 20.7687 6.75723 18.8228 5.01036L18.8113 5C17.3469 5.81489 16.091 6.80104 15.0031 7.95766L15 7.96085C15.0337 7.99749 15.0667 8.02855 15.1004 8.06599C17.9518 11.2618 20.5486 15.8166 20.1193 18C21.2923 16.4188 21.9992 14.4091 21.9992 12.2281C21.9992 12.2265 21.9992 12.2249 21.9992 12.2233L22 12.2241Z" fill="white"/>
<path d="M12.2537 5.85568C13.6007 4.77913 15.2194 4.06826 16.9615 3.88396L17 3.88103C15.5272 2.70112 13.7209 2 11.7799 2C10.0394 2 8.40704 2.5646 7 3.55144L7.0465 3.52121C7.57404 4.07411 9.32101 4.28279 11.4432 5.86153C11.5578 5.94832 11.6965 6 11.8457 6C11.9972 6 12.1383 5.94637 12.257 5.8547L12.2537 5.85666V5.85568Z" fill="white"/>
<path d="M9.88134 7.87387C9.92089 7.83535 9.96131 7.80312 10 7.76539C8.99398 6.87399 7.89682 6.05648 6.72743 5.32858L6.6423 5.27827C6.38263 5.10455 6.05675 5 5.70421 5C5.57868 5 5.45658 5.01336 5.33878 5.03852L5.34996 5.03695C3.28805 6.76472 2 9.2377 2 11.9858C2 14.2725 2.89166 16.3689 4.37489 18L4.36114 17.9843C3.47463 15.9822 6.49097 11.1675 9.88048 7.87387H9.88134Z" fill="white"/>
<path d="M11.9773 9C8.80661 12.0765 4.39314 16.6672 5.06937 18.8523C6.80915 20.7959 9.22915 22 11.9052 22C14.7006 22 17.2166 20.6861 18.9684 18.5897L18.9748 18.5818C19.3637 16.2825 15.1695 12.138 11.9773 9Z" fill="white"/>
</svg>
